<?xml version="1.0" encoding="UTF-8"?>
<svg version="1.1" xmlns="http://www.w3.org/2000/svg" width="512" height="512">
<path d="M0 0 C1.17707586 -0.00384115 2.35415173 -0.00768229 3.56689656 -0.01163983 C4.85607861 -0.01077335 6.14526066 -0.00990687 7.47350883 -0.00901413 C8.86004305 -0.01159879 10.24657653 -0.01461223 11.63310897 -0.01801753 C15.4429096 -0.02607906 19.25269138 -0.02787663 23.06249952 -0.028615 C27.17173168 -0.03046705 31.28095408 -0.03801519 35.39018059 -0.04475021 C44.37587236 -0.05832844 53.36155967 -0.06435757 62.34726 -0.06876087 C67.95945168 -0.07152437 73.57164165 -0.07576195 79.18383217 -0.08026505 C94.72628293 -0.09245746 110.26873231 -0.10275656 125.81118774 -0.10614014 C126.80582995 -0.1063597 127.80047215 -0.10657927 128.82525503 -0.10680549 C129.82226195 -0.10702377 130.81926887 -0.10724204 131.84648812 -0.10746694 C133.86676415 -0.1079104 135.88704018 -0.10835696 137.90731621 -0.10880661 C138.90944046 -0.10902804 139.91156472 -0.10924947 140.94405638 -0.10947761 C157.17700923 -0.11342445 173.40991717 -0.13087512 189.64285268 -0.15416613 C206.31413882 -0.17789272 222.98540244 -0.1903426 239.65670574 -0.19150805 C249.0148964 -0.19242412 258.37302855 -0.1981592 267.73120308 -0.21632767 C275.70105818 -0.23174635 283.67083668 -0.23683872 291.64070387 -0.22858956 C295.70484387 -0.22468921 299.76882968 -0.22558248 303.83295059 -0.23964691 C307.55893472 -0.25242288 311.28464938 -0.25115616 315.01063333 -0.2390562 C316.98560298 -0.23618674 318.96057745 -0.24800696 320.9355098 -0.26047826 C334.52570413 -0.18539183 344.52273443 2.791631 354.41415215 12.30720901 C369.1191445 28.04508438 370.51315046 53.15574473 372.1524334 73.75642776 C372.26785799 75.1879537 372.26785799 75.1879537 372.3856144 76.64839935 C374.24366035 102.9178015 368.68266782 123.15779593 351.41125298 143.07216263 C341.35401919 154.41408678 330.54611823 164.98723464 319.4649334 175.31892776 C318.90830765 175.83863175 318.3516819 176.35833574 317.77818871 176.89378834 C305.04747499 188.76206848 292.06961595 200.32943529 278.73998833 211.52209282 C273.71110121 215.7479632 268.96916726 219.87278566 264.8399334 225.00642776 C263.01858385 227.22632982 261.12701086 229.07213559 258.92684746 230.91463089 C248.09312027 240.29981525 238.07678875 250.67507404 227.88663673 260.74515915 C224.01071287 264.57486074 220.12483124 268.39308934 216.21298027 272.18611526 C212.40543422 275.87849379 208.62610487 279.59772894 204.86444664 283.33682632 C203.43713072 284.74648368 202.0003851 286.14666564 200.55376244 287.53650284 C192.06131865 295.71081199 186.42588952 302.0315875 184.5060482 314.07982635 C183.98617051 317.09605129 183.24640911 320.05025537 182.52207375 323.02291393 C181.91436207 325.5222663 181.33017241 328.026072 180.75253105 330.53253555 C180.45321678 331.83074643 180.45321678 331.83074643 180.14785576 333.15518379 C179.94311638 334.04324274 179.738377 334.93130169 179.5274334 335.84627151 C179.0945836 337.71470336 178.66147277 339.58307475 178.22811699 341.45138931 C177.09655917 346.33215004 175.9676986 351.21352994 174.83968925 356.09511185 C173.03581123 363.90064905 171.22883721 371.70546757 169.41982841 379.50981712 C168.79605162 382.20337535 168.17409597 384.89734913 167.55233574 387.59137344 C167.16154936 389.28050042 166.77044387 390.9695536 166.3789959 392.65852737 C166.19238899 393.46378325 166.00578209 394.26903913 165.81352043 395.09869671 C164.27442788 401.69752757 162.62036544 408.26367437 160.91976738 414.82260513 C159.8889895 419.26742481 159.4843401 422.60323987 160.1524334 427.13142776 C161.9024334 430.38142776 161.9024334 430.38142776 165.1524334 432.13142776 C171.68623686 433.1027127 177.51513072 431.43648294 183.64071465 429.33455276 C185.00979721 428.88299065 185.00979721 428.88299065 186.40653801 428.42230606 C189.43040859 427.42142199 192.44752405 426.40160907 195.4649334 425.38142776 C197.5971963 424.67103708 199.72985546 423.96183483 201.86288261 423.25374222 C206.47018273 421.72175788 211.07462826 420.1815483 215.67733574 418.6358223 C222.91569857 416.20693101 230.16277532 413.80485475 237.41152573 411.40717316 C242.86547639 409.60254993 248.31798853 407.7935827 253.77050209 405.98462296 C255.10799246 405.54098001 256.44553975 405.09750861 257.783144 404.65420914 C262.21242681 403.18625055 266.63986171 401.71282829 271.0664959 400.23689651 C272.18736092 399.86564148 273.30822594 399.49438644 274.46305656 399.11188126 C286.09647747 395.34449145 286.09647747 395.34449145 295.6524334 387.94392776 C296.5289959 387.04287308 297.4055584 386.14181839 298.3086834 385.21345901 C300.28648121 383.10661099 302.16799422 380.93797651 304.0376873 378.73518753 C308.78940478 373.29780318 313.92638826 368.24561855 319.04775429 363.16094208 C320.86568772 361.35591169 322.68035611 359.54765336 324.49426079 357.73857498 C328.33582808 353.90835209 332.18135067 350.08211578 336.0274334 346.25642776 C340.50747729 341.79999887 344.9858779 337.34194349 349.46011543 332.87968445 C351.24906977 331.09721687 353.04100365 329.31778178 354.83306694 327.5384407 C355.92257913 326.45255867 357.0119525 325.36653733 358.10116386 324.28035355 C358.60086189 323.78582184 359.10055992 323.29129013 359.61540031 322.78177261 C362.21284541 320.20506538 362.21284541 320.20506538 364.1524334 317.13142776 C364.8124334 317.13142776 365.4724334 317.13142776 366.1524334 317.13142776 C366.2226134 336.51626696 366.27546556 355.90108025 366.30786991 375.28602028 C366.32331786 384.28742986 366.34436763 393.28876036 366.37875175 402.29011917 C366.4087177 410.13861319 366.42802345 417.98704991 366.43469888 425.83559954 C366.43859898 429.98871814 366.44772125 434.14167286 366.46962357 438.29473877 C366.4901026 442.20993123 366.49624433 446.1248935 366.49175644 450.04013443 C366.49257656 451.47112278 366.49847396 452.90211945 366.51004982 454.33306122 C366.62306329 469.03376834 363.5817112 480.48321046 353.4024334 491.44392776 C343.06439305 501.20982466 331.00942806 502.43207286 317.41917229 502.39212418 C316.02449748 502.39514771 314.62982433 502.39903821 313.23515409 502.40371674 C309.41684369 502.41397932 305.59862737 502.41181938 301.78030932 502.40753615 C297.65684796 502.40506578 293.53340907 502.4140869 289.40995598 502.42157364 C281.33740431 502.43431368 273.26488592 502.43611523 265.1923259 502.43377338 C258.63032811 502.43198941 252.06834042 502.43374154 245.50634384 502.43799782 C244.57195417 502.43859301 243.63756449 502.4391882 242.67485998 502.43980142 C240.77657783 502.44101319 238.87829569 502.44222732 236.98001354 502.4434438 C219.18396019 502.45431649 201.38792579 502.45215802 183.59187137 502.44605895 C167.31572255 502.44088908 151.03963357 502.45214757 134.76349659 502.47115717 C118.04466073 502.49053392 101.32585318 502.49879192 84.60700601 502.49503392 C75.22321855 502.49312175 65.83948203 502.49561106 56.45570374 502.50974846 C48.46792569 502.52166107 40.48022995 502.52306842 32.49245078 502.51095829 C28.41841563 502.505069 24.34453103 502.50397157 20.27050591 502.51596069 C16.53795473 502.52681716 12.80567986 502.5237191 9.07314163 502.50969901 C7.0898826 502.5058013 5.10661132 502.51660105 3.1233812 502.52799588 C-10.04674134 502.44826372 -20.43173978 498.43316043 -30.1600666 489.38142776 C-37.18673155 481.98493835 -40.0032842 473.82098006 -39.98178768 463.81393719 C-39.98413991 463.07142132 -39.98649214 462.32890546 -39.98891565 461.56388912 C-39.99560198 459.06200894 -39.99514754 456.56018075 -39.99473763 454.05829239 C-39.99803648 452.25189162 -40.00176209 450.44549159 -40.0058791 448.6390925 C-40.01590481 443.66407464 -40.01961682 438.68906884 -40.02226841 433.71404231 C-40.02616978 428.35256539 -40.03574825 422.99109804 -40.04448128 417.62962723 C-40.0642506 404.67599465 -40.07431258 391.72236128 -40.08320907 378.76871738 C-40.08759127 372.66992491 -40.09295827 366.57113332 -40.09819794 360.47234154 C-40.11521082 340.20068257 -40.1297052 319.92902414 -40.13694668 299.65735912 C-40.1388566 294.39586702 -40.14077693 289.13437493 -40.14273262 283.87288284 C-40.14321636 282.56515038 -40.1437001 281.25741792 -40.1441985 279.91005719 C-40.15249953 258.72367522 -40.17783745 237.5373497 -40.2103133 216.35099237 C-40.2433774 194.60372284 -40.26139486 172.85648199 -40.26459092 151.10918719 C-40.26675663 138.89715835 -40.27551431 126.68521183 -40.30105209 114.47320747 C-40.3227502 104.07322816 -40.33081386 93.67335116 -40.32108531 83.27335178 C-40.31653805 77.96770813 -40.31845181 72.66227559 -40.33784676 67.35666084 C-40.35546049 62.49629692 -40.35449507 57.63629842 -40.33894946 52.77593071 C-40.33657069 51.02081463 -40.34091091 49.26567336 -40.35277811 47.51059579 C-40.44483609 32.99260038 -38.32003675 22.05079744 -28.07022285 11.26033401 C-20.22711919 3.80216795 -10.77100965 0.01321637 0 0 Z M37.1524334 91.13142776 C34.90841102 95.61947251 35.8425489 101.69037398 35.80233574 106.67952347 C35.78579151 108.18391278 35.75852088 109.68822396 35.72030449 111.19221878 C35.66537132 113.36637818 35.6436397 115.53869798 35.6289959 117.71345901 C35.60917656 119.01517044 35.58935722 120.31688187 35.5689373 121.65803909 C36.29683113 125.99098698 37.78870513 127.407942 41.1524334 130.13142776 C45.34872174 132.22957194 50.80278189 131.35831304 55.41879082 131.37166214 C57.44696278 131.381342 59.47410981 131.41235309 61.50204277 131.44392776 C63.42693535 131.45166214 63.42693535 131.45166214 65.39071465 131.45955276 C66.56674248 131.46889847 67.74277031 131.47824417 68.95443535 131.48787308 C73.44459756 130.98740458 76.0029047 129.28095646 79.1524334 126.13142776 C79.3888473 123.60923994 79.50465403 121.20022213 79.52352715 118.67439651 C79.53255562 117.93441925 79.54158409 117.19444199 79.55088615 116.43204117 C79.56540479 114.86434864 79.5742794 113.29659529 79.5779705 111.72883987 C79.58983923 109.3378965 79.63897717 106.94955818 79.68954277 104.55916214 C79.69901045 103.03508618 79.70624384 101.51099438 79.71102715 99.98689651 C79.73055946 99.27526855 79.75009178 98.56364059 79.77021599 97.83044815 C79.73663713 94.10736822 79.22869082 92.23893153 77.0586834 89.17976761 C73.46873868 86.64955624 71.4597212 86.49995687 67.09383965 86.50252151 C66.42706703 86.50010956 65.76029442 86.4976976 65.07331657 86.49521255 C63.66888267 86.49618809 62.26440893 86.50951222 60.86019707 86.53450394 C58.72384141 86.56878482 56.59163598 86.55516274 54.45516777 86.53572464 C53.08470764 86.54262537 51.7142581 86.55229983 50.34383965 86.56502151 C49.10835381 86.57589798 47.87286797 86.58677444 46.59994316 86.5979805 C42.54011091 87.22617492 40.33846039 88.58361827 37.1524334 91.13142776 Z M266.83472729 86.13587189 C262.86225909 86.14337626 258.88979213 86.15123373 254.91732597 86.15974808 C253.78135003 86.16217734 253.78135003 86.16217734 252.62242508 86.16465569 C237.74249006 86.19732525 222.86266995 86.2518457 207.98283672 86.31533051 C198.51340547 86.35521782 189.0440589 86.38757311 179.57455254 86.40242386 C171.30004021 86.41541864 163.02571109 86.44231655 154.75130194 86.48604083 C150.37493138 86.50868332 145.99878695 86.52433668 141.6223526 86.52331161 C137.51077036 86.52256796 133.39969075 86.5403991 129.28823853 86.5725956 C127.77896986 86.58112399 126.26964502 86.58282464 124.76036263 86.57723045 C122.70119707 86.57061343 120.6436419 86.58845083 118.5846386 86.61244583 C117.43227117 86.616133 116.27990374 86.61982018 115.09261608 86.62361908 C111.49614756 87.24477706 110.31012084 88.22936238 108.1524334 91.13142776 C107.75437053 93.90284659 107.5905795 96.269472 107.6211834 99.03767776 C107.61735649 99.79939285 107.61352959 100.56110794 107.60958672 101.3459053 C107.60687026 102.95297445 107.61421295 104.560088 107.63094902 106.1670723 C107.65236553 108.62364363 107.63114161 111.07729087 107.6055584 113.53377151 C107.60820172 115.09758004 107.61332681 116.66138674 107.6211834 118.22517776 C107.61308647 118.95756668 107.60498955 119.6899556 107.59664726 120.44453812 C107.65587994 123.67432744 107.94984582 125.81012644 109.68563652 128.56306839 C116.65041898 132.99119215 127.336766 131.28690202 135.36166191 131.29256058 C136.89826385 131.29719553 138.43486466 131.30222109 139.97146416 131.30760574 C144.12628619 131.32065976 148.28109213 131.32716003 152.43593144 131.3316164 C155.03444205 131.33455627 157.63294834 131.3386626 160.23145676 131.34312057 C168.37022967 131.35677219 176.50899262 131.36645231 184.64777619 131.37032247 C194.02834333 131.37480858 203.40876515 131.39239188 212.7892881 131.42132306 C220.05319597 131.44294616 227.31706295 131.45302695 234.58100265 131.45436358 C238.91442052 131.45541043 243.24770134 131.46129366 247.58108521 131.4791832 C251.6547963 131.49567654 255.72826743 131.49781334 259.80200005 131.48904419 C261.29391371 131.4882747 262.78584037 131.49260491 264.27772141 131.50250244 C276.06942656 131.852489 276.06942656 131.852489 286.06063652 126.37898636 C288.35322476 121.65949456 287.66989568 116.07230837 287.65340996 110.91463089 C287.65243926 108.76937781 287.69403783 106.62772559 287.7383709 104.48299026 C287.74358004 103.10799767 287.74626605 101.73299273 287.7461834 100.35799026 C287.75327324 99.11613968 287.76036308 97.87428909 287.76766777 96.59480667 C286.9532217 92.0099924 285.42517388 90.39376499 282.1524334 87.13142776 C277.3680165 85.36874786 271.88157801 86.12911155 266.83472729 86.13587189 Z M37.30233574 186.92268753 C35.76244528 189.88051959 35.76404832 192.14320016 35.7539959 195.47127151 C35.75012871 196.69910355 35.74626152 197.92693558 35.74227715 199.19197464 C35.75387871 200.47136917 35.76548027 201.7507637 35.7774334 203.06892776 C35.76583183 204.34445511 35.75423027 205.61998245 35.74227715 206.93416214 C35.74614433 208.16328323 35.75001152 209.39240433 35.7539959 210.65877151 C35.75737968 211.78017532 35.76076347 212.90157913 35.7642498 214.05696487 C36.20008601 217.5088425 37.07806722 219.3610371 39.1524334 222.13142776 C42.75223968 224.53129862 45.33922582 224.41706392 49.49613762 224.3988533 C50.62681822 224.40564997 50.62681822 224.40564997 51.78034085 224.41258395 C54.31369456 224.4252743 56.84683456 224.4236046 59.3802166 224.42195511 C61.19356374 224.42793753 63.00690834 224.43474241 64.82024956 224.44231033 C69.75214923 224.46000809 74.68397955 224.46466734 79.61590791 224.46594191 C83.73120395 224.4678392 87.84648377 224.47519491 91.96177357 224.4822861 C101.67108713 224.49858248 111.38036359 224.50345396 121.08968925 224.50203323 C131.10819512 224.50083189 141.12648552 224.5219294 151.14493686 224.55352056 C159.74290714 224.57966727 168.34080699 224.59040118 176.93881673 224.58912241 C182.07545583 224.58861225 187.21190357 224.59432532 192.34850311 224.61547852 C197.18058929 224.63483349 202.01230108 224.63500413 206.84440041 224.62044525 C208.61731385 224.61835255 210.39025056 224.62308546 212.16312408 224.63516617 C214.58511606 224.65060017 217.00581419 224.64132368 219.42777824 224.62590408 C220.12808027 224.63619121 220.8283823 224.64647834 221.5499056 224.65707719 C226.50726544 224.58741474 229.34232369 223.24938047 233.1524334 220.13142776 C235.93057223 214.87938432 235.48418538 208.93782737 235.4649334 203.13142776 C235.48104668 202.15947464 235.49715996 201.18752151 235.51376152 200.18611526 C235.51808783 193.83508578 234.82983498 189.36662134 230.6524334 184.31892776 C227.16602937 181.55885791 223.16757031 181.98571379 218.96058464 181.99098587 C218.22313178 181.98801475 217.48567893 181.98504363 216.72587901 181.98198247 C214.24785383 181.97329144 211.76987692 181.97178688 209.29183769 181.97029495 C207.51790069 181.96566707 205.74396468 181.96064245 203.97002983 181.95524979 C199.14557869 181.94212103 194.32114147 181.93567991 189.49667525 181.93123913 C186.48327811 181.92830921 183.46988479 181.92420455 180.45648956 181.91973495 C171.03038192 181.90605885 161.60428297 181.89639271 152.17816609 181.89253306 C141.29315389 181.8880517 130.40826722 181.87050064 119.5232932 181.84153247 C111.11216559 181.81992412 102.70107332 181.80982924 94.28991824 181.80849195 C89.26508976 181.80744332 84.24037927 181.80152331 79.21557999 181.78367233 C74.48861072 181.76720629 69.76184832 181.76502902 65.03486061 181.77381134 C63.30064846 181.7745825 61.56642526 181.77022864 59.83224106 181.76035309 C57.46299178 181.74765315 55.09447732 181.75349938 52.72523308 181.76393509 C51.69812573 181.75185048 51.69812573 181.75185048 50.65026873 181.73952174 C45.27418581 181.79482623 41.19378647 183.154995 37.30233574 186.92268753 Z M38.1524334 280.13142776 C35.40972584 286.07213086 35.81706022 293.46779039 35.8399334 299.88142776 C35.82382011 300.80052933 35.80770683 301.71963089 35.79110527 302.66658401 C35.77743048 309.42365264 35.77743048 309.42365264 39.1524334 315.13142776 C43.96527224 319.13364114 49.14526844 318.554369 55.08968925 318.51961136 C56.19268867 318.52486832 57.2956881 318.53012527 58.43211174 318.53554153 C62.07731104 318.54874247 65.72207342 318.54000213 69.36727715 318.52986526 C71.90166622 318.53188611 74.43605473 318.53479763 76.97044182 318.53856277 C82.28238815 318.5429864 87.59417808 318.53684078 92.9060955 318.52254105 C99.0381446 318.50622361 105.16989428 318.51149792 111.30193609 318.52802026 C117.21102054 318.54330178 123.12001239 318.54164941 129.02911377 318.53287506 C131.53892433 318.53087435 134.04874253 318.53332779 136.55854416 318.54031372 C140.0678292 318.54793722 143.57654064 318.53631008 147.085783 318.51961136 C148.12234032 318.52568405 149.15889763 318.53175674 150.22686577 318.53801346 C155.61315405 318.4905614 159.5177814 318.20671478 164.1524334 315.13142776 C167.80095473 310.29874877 166.52162583 303.00011148 166.5274334 297.25642776 C166.55192558 295.98927933 166.57641777 294.72213089 166.60165215 293.41658401 C166.74772951 284.42361529 166.74772951 284.42361529 162.1524334 277.13142776 C159.73663202 275.92352708 158.20324295 275.99775769 155.50379753 275.98425674 C154.52381798 275.97710144 153.54383842 275.96994614 152.53416252 275.96257401 C150.91567657 275.95854065 150.91567657 275.95854065 149.26449394 275.95442581 C148.1310656 275.94785461 146.99763725 275.94128342 145.82986259 275.93451309 C142.06629184 275.91474706 138.30276102 275.90311071 134.53915215 275.89314651 C132.61504981 275.88703322 132.61504981 275.88703322 130.65207672 275.88079643 C124.56467012 275.86207666 118.47728362 275.84751343 112.38985413 275.83918446 C105.36362912 275.82941226 98.33771916 275.80309378 91.31160516 275.76268357 C85.22580129 275.72888308 79.14012989 275.71703932 73.05423737 275.71298027 C70.46542854 275.70809974 67.87662344 275.69644438 65.28787613 275.67794228 C61.66784575 275.65367584 58.04864272 275.65449339 54.42855644 275.66145706 C53.3556385 275.648647 52.28272057 275.63583694 51.17728996 275.6226387 C45.61632647 275.66170466 42.06645019 275.70597729 38.1524334 280.13142776 Z M37.1524334 375.13142776 C34.88046551 379.67536354 35.92227861 385.955336 35.9024334 390.94392776 C35.8818084 392.22847855 35.8611834 393.51302933 35.8399334 394.83650589 C35.83477715 396.07465042 35.8296209 397.31279495 35.8243084 398.58845901 C35.81496269 399.72259232 35.80561699 400.85672562 35.79598808 402.02522659 C36.19641733 405.51472061 37.05299405 407.34047712 39.1524334 410.13142776 C43.00468593 412.69959612 46.191123 412.43420825 50.65951347 412.43782425 C51.96244598 412.45030952 51.96244598 412.45030952 53.29170036 412.46304703 C56.1685005 412.48717812 59.04507397 412.49592338 61.92196465 412.50252151 C63.92112611 412.5114862 65.92028688 412.52060802 67.91944695 412.52988052 C72.11341801 412.54638203 76.30730914 412.55407263 80.50131035 412.55696487 C85.87167972 412.56234672 91.24129621 412.60001378 96.61145306 412.64570904 C100.74219812 412.67547515 104.8727619 412.68268835 109.00360489 412.68369102 C110.98314356 412.687895 112.96268269 412.70033637 114.94211578 412.72120857 C117.71436043 412.74811069 120.48486053 412.74330095 123.25716972 412.730793 C124.0724514 412.74562729 124.88773308 412.76046158 125.72772026 412.77574539 C129.84308604 412.72295812 132.39023751 412.34865862 135.64588737 409.71896744 C140.72158951 404.47925489 139.41276731 398.35081657 139.4649334 391.38142776 C139.4939373 390.10525589 139.52294121 388.82908401 139.55282402 387.51424026 C139.75689368 378.46592192 139.75689368 378.46592192 135.1524334 371.13142776 C131.87792793 369.49417503 128.2514581 369.95690502 124.65121269 369.93855667 C123.77137718 369.93037918 122.89154167 369.92220169 121.98504448 369.9137764 C119.06558734 369.88890914 116.14617885 369.87240343 113.22665215 369.85799026 C112.23076387 369.85266659 111.2348756 369.84734291 110.2088089 369.84185791 C104.93815314 369.81512118 99.66752112 369.79574751 94.39681816 369.78133011 C88.94901647 369.76467638 83.50181904 369.71989386 78.05424595 369.66895866 C73.86865851 369.63532637 69.68321523 369.6237571 65.49750519 369.61810303 C63.48921717 369.61137998 61.48093897 369.59613067 59.47278214 369.57221222 C56.66196421 369.54064251 53.85278588 369.54051146 51.04183769 369.54793167 C50.21203896 369.53152634 49.38224022 369.515121 48.52729607 369.49821854 C43.03622676 369.55756514 40.66972263 370.5947999 37.1524334 375.13142776 Z " fill="#000000" transform="translate(39.84756660461426,4.868572235107422)"/>
<path d="M0 0 C3.53631699 0.55756186 4.88269342 1.64153476 7.0625 4.4375 C9.01068086 6.91277489 10.30632886 8.20421924 13 10 C13 10.66 13 11.32 13 12 C13.55631104 12.23033936 14.11262207 12.46067871 14.68579102 12.69799805 C17.63110696 14.35506841 19.65172061 16.42777287 22.02734375 18.83203125 C22.733536 19.54246834 22.733536 19.54246834 23.45399475 20.26725769 C24.9532789 21.77768755 26.4454658 23.29491149 27.9375 24.8125 C28.9363829 25.82142518 29.93572751 26.82989345 30.93554688 27.83789062 C32.78537161 29.70398404 34.63187321 31.57314888 36.47631836 33.44458008 C38.97388127 35.9735528 41.48429373 38.48908708 44 41 C50.5 47.5 50.5 47.5 57 54 C58.175625 55.0209375 58.175625 55.0209375 59.375 56.0625 C60.179375 57.0215625 60.179375 57.0215625 61 58 C60.42568171 62.64983012 57.22881473 65.16250992 54.03076172 68.29394531 C53.40787766 68.91566116 52.78499359 69.53737701 52.14323425 70.17793274 C50.07892887 72.23504205 48.00430932 74.28142486 45.9296875 76.328125 C44.48984382 77.75982908 43.05073667 79.19227422 41.61233521 80.62542725 C37.81722873 84.40339565 34.01365939 88.17272308 30.20782471 91.93988037 C24.13566919 97.95293639 18.07594003 103.9785059 12.01703262 110.0049057 C9.90668141 112.10139059 7.79250171 114.19395155 5.67770386 116.28594971 C4.36691495 117.58670187 3.05621115 118.88753979 1.74560547 120.18847656 C0.87401543 121.04760399 0.87401543 121.04760399 -0.0151825 121.92408752 C-3.59213287 125.48195893 -6.94422769 129.17943526 -10.24422073 132.99475479 C-13.09298518 136.24827952 -16.06682257 139.37895162 -19.0480957 142.51074219 C-19.71626816 143.21439911 -20.38444061 143.91805603 -21.07286072 144.64303589 C-27.25352835 151.13532638 -33.49565781 157.56754927 -39.75851154 163.98051071 C-43.93885072 168.2636715 -48.09599421 172.56469319 -52.20336914 176.91796875 C-71.79015537 197.64546746 -88.26829463 213.50553554 -116.49014282 220.14733887 C-121.22300861 221.2971095 -125.72760473 222.89969566 -130.29296875 224.578125 C-131.65269038 225.04506909 -133.01394658 225.50757704 -134.37695312 225.96484375 C-136.33383154 226.62324683 -138.28903983 227.28509035 -140.24047852 227.95947266 C-142.25464788 228.65512573 -144.27304113 229.33690219 -146.29296875 230.015625 C-147.4224292 230.40008789 -148.55188965 230.78455078 -149.71557617 231.18066406 C-153.29791748 232.07431882 -156.32170509 232.26140449 -160 232 C-162.70689877 230.07667719 -163.76991466 228.83614066 -164.65112305 225.63378906 C-165.00944261 222.92871456 -164.83957406 221.18336547 -164.20703125 218.546875 C-163.9951416 217.64122803 -163.78325195 216.73558105 -163.56494141 215.80249023 C-163.19248291 214.29150757 -163.19248291 214.29150757 -162.8125 212.75 C-162.55130371 211.67113525 -162.29010742 210.59227051 -162.02099609 209.48071289 C-161.56691813 207.60710848 -161.11256715 205.73356547 -160.65332031 203.86122131 C-159.36141695 198.57264499 -158.14646898 193.26865584 -156.94700623 187.95840454 C-155.94742434 183.55579202 -154.92298087 179.15914563 -153.89511108 174.76306152 C-153.3844268 172.55777965 -152.88303517 170.35032385 -152.39126587 168.14074707 C-151.68559707 164.98161139 -150.94430544 161.83270019 -150.1953125 158.68359375 C-149.89201775 157.26913216 -149.89201775 157.26913216 -149.58259583 155.82609558 C-147.18707805 146.07642961 -140.85641957 140.46905148 -133.42807007 134.16363525 C-127.34533075 128.7433513 -121.70515733 122.82463245 -115.95703125 117.0546875 C-114.50092687 115.59671437 -113.04459883 114.13896459 -111.58805847 112.681427 C-107.77216084 108.86173114 -103.9592744 105.03904344 -100.14703369 101.21569824 C-96.26975873 97.32818498 -92.38964785 93.44350456 -88.50976562 89.55859375 C-82.24516334 83.28522643 -75.98227688 77.01015243 -69.72167969 70.73278809 C-64.49949202 65.49689489 -59.26899424 60.26940297 -54.03222656 55.0480957 C-48.20707412 49.2392279 -42.38442401 43.42785867 -36.56322098 37.61503315 C-33.04622809 34.10328208 -29.52829622 30.59248191 -26.00830078 27.08374023 C-22.5963297 23.68260421 -19.18678064 20.27905772 -15.77892303 16.87380028 C-14.47998576 15.5767134 -13.18016738 14.28050828 -11.8794632 12.98519325 C-10.06738919 11.1803396 -8.25842953 9.37242014 -6.45019531 7.5637207 C-5.90995224 7.02707291 -5.36970917 6.49042511 -4.81309509 5.93751526 C-2.06373798 3.22789109 -2.06373798 3.22789109 0 0 Z M-134 163 C-136.14513815 169.14550759 -137.9299964 175.30890209 -139.48046875 181.62890625 C-139.69818436 182.50401352 -139.91589996 183.37912079 -140.14021301 184.28074646 C-140.82599945 187.04051105 -141.50683329 189.80146875 -142.1875 192.5625 C-142.6552702 194.44864927 -143.12336618 196.33471778 -143.59179688 198.22070312 C-144.73162901 202.81287799 -145.86702518 207.40612873 -147 212 C-142.88844745 213.37051752 -140.07892792 211.94284092 -136.1484375 210.578125 C-135.37496979 210.31747253 -134.60150208 210.05682007 -133.80459595 209.78826904 C-131.32512317 208.95057939 -128.85009461 208.10052814 -126.375 207.25 C-124.73074945 206.69188069 -123.08622089 206.1345797 -121.44140625 205.578125 C-118.38544278 204.54317112 -115.3312728 203.50323415 -112.27880859 202.45800781 C-107.8607115 200.94738244 -103.43155621 199.47060497 -99 198 C-100.7679099 194.2117871 -102.96921691 191.78676006 -105.9453125 188.82421875 C-106.43401825 188.33597122 -106.922724 187.84772369 -107.42623901 187.34468079 C-108.46115667 186.31277802 -109.49849751 185.28330056 -110.53808594 184.25610352 C-112.10400669 182.70825108 -113.66196358 181.1527365 -115.21875 179.59570312 C-123.83479166 170.27008359 -123.83479166 170.27008359 -134 163 Z " fill="#000000" transform="translate(399,169)"/>
<path d="M0 0 C4.60147085 2.92678588 8.38612139 6.69169142 12.296875 10.4609375 C13.66608098 11.61368813 15.04070386 12.76005035 16.421875 13.8984375 C24.52895028 21.0024061 30.75625934 28.52189593 31.60546875 39.421875 C31.93190015 47.4545778 31.89498658 54.57067421 27.296875 61.4609375 C26.85730469 62.13511719 26.41773438 62.80929688 25.96484375 63.50390625 C18.81614893 73.43968715 9.17129895 82.36657516 -0.25 90.12890625 C-1.96385614 91.59363241 -1.96385614 91.59363241 -3.703125 94.4609375 C-7.55499028 93.89925246 -9.32403864 92.21431245 -12.03125 89.49609375 C-12.83046875 88.69623047 -13.6296875 87.89636719 -14.453125 87.07226562 C-15.278125 86.23115234 -16.103125 85.39003906 -16.953125 84.5234375 C-17.79359375 83.68619141 -18.6340625 82.84894531 -19.5 81.98632812 C-25.703125 75.72781808 -25.703125 75.72781808 -25.703125 73.4609375 C-26.363125 73.4609375 -27.023125 73.4609375 -27.703125 73.4609375 C-29.04296875 72.09765625 -29.04296875 72.09765625 -30.640625 70.1484375 C-33.74479957 66.49646741 -37.00438013 63.03807823 -40.390625 59.6484375 C-41.30199219 58.73449219 -42.21335937 57.82054687 -43.15234375 56.87890625 C-45.57870693 54.47505835 -45.57870693 54.47505835 -48.03515625 52.76171875 C-48.58558594 52.33246094 -49.13601563 51.90320313 -49.703125 51.4609375 C-49.703125 50.8009375 -49.703125 50.1409375 -49.703125 49.4609375 C-50.363125 49.4609375 -51.023125 49.4609375 -51.703125 49.4609375 C-53.18359375 47.921875 -53.18359375 47.921875 -54.890625 45.8359375 C-58.20869996 41.91837841 -61.7297301 38.70452517 -65.703125 35.4609375 C-64.3155432 32.32214369 -62.70789092 30.23838955 -60.25390625 27.8515625 C-59.57005859 27.17867187 -58.88621094 26.50578125 -58.18164062 25.8125 C-57.46685547 25.11898437 -56.75207031 24.42546875 -56.015625 23.7109375 C-51.21173409 19.02725516 -46.57578561 14.30453335 -42.22900391 9.18945312 C-31.91560872 -2.49356094 -14.33051355 -6.780545 0 0 Z " fill="#020202" transform="translate(480.703125,119.5390625)"/>
</svg>
